<svg xmlns="http://www.w3.org/2000/svg" viewBox="0 0 1200 450" fill="none">
  <defs>
    <linearGradient id="bg" x1="0" y1="0" x2="1200" y2="450" gradientUnits="userSpaceOnUse">
      <stop stop-color="#0c0a1a"/>
      <stop offset="0.5" stop-color="#0f172a"/>
      <stop offset="1" stop-color="#0a0f1e"/>
    </linearGradient>
    <linearGradient id="pgGrad" x1="0" y1="0" x2="0" y2="1" gradientUnits="objectBoundingBox">
      <stop stop-color="#336791"/>
      <stop offset="1" stop-color="#23648a"/>
    </linearGradient>
    <linearGradient id="patroniGrad" x1="0" y1="0" x2="0" y2="1" gradientUnits="objectBoundingBox">
      <stop stop-color="#6366f1"/>
      <stop offset="1" stop-color="#4f46e5"/>
    </linearGradient>
    <linearGradient id="etcdGrad" x1="0" y1="0" x2="0" y2="1" gradientUnits="objectBoundingBox">
      <stop stop-color="#06b6d4"/>
      <stop offset="1" stop-color="#0891b2"/>
    </linearGradient>
    <linearGradient id="haGrad" x1="0" y1="0" x2="1" y2="1" gradientUnits="objectBoundingBox">
      <stop stop-color="#10b981"/>
      <stop offset="1" stop-color="#059669"/>
    </linearGradient>
    <filter id="glow">
      <feGaussianBlur stdDeviation="4" result="blur"/>
      <feMerge>
        <feMergeNode in="blur"/>
        <feMergeNode in="SourceGraphic"/>
      </feMerge>
    </filter>
    <filter id="softGlow">
      <feGaussianBlur stdDeviation="8" result="blur"/>
      <feMerge>
        <feMergeNode in="blur"/>
        <feMergeNode in="SourceGraphic"/>
      </feMerge>
    </filter>
    <filter id="boxShadow">
      <feDropShadow dx="0" dy="4" stdDeviation="6" flood-color="#000" flood-opacity="0.3"/>
    </filter>
  </defs>

  <!-- Background -->
  <rect width="1200" height="450" fill="url(#bg)"/>

  <!-- Grid -->
  <g stroke="#ffffff" stroke-opacity="0.015" stroke-width="1">
    <line x1="0" y1="50" x2="1200" y2="50"/>
    <line x1="0" y1="100" x2="1200" y2="100"/>
    <line x1="0" y1="150" x2="1200" y2="150"/>
    <line x1="0" y1="200" x2="1200" y2="200"/>
    <line x1="0" y1="250" x2="1200" y2="250"/>
    <line x1="0" y1="300" x2="1200" y2="300"/>
    <line x1="0" y1="350" x2="1200" y2="350"/>
    <line x1="0" y1="400" x2="1200" y2="400"/>
    <line x1="100" y1="0" x2="100" y2="450"/>
    <line x1="200" y1="0" x2="200" y2="450"/>
    <line x1="300" y1="0" x2="300" y2="450"/>
    <line x1="400" y1="0" x2="400" y2="450"/>
    <line x1="500" y1="0" x2="500" y2="450"/>
    <line x1="600" y1="0" x2="600" y2="450"/>
    <line x1="700" y1="0" x2="700" y2="450"/>
    <line x1="800" y1="0" x2="800" y2="450"/>
    <line x1="900" y1="0" x2="900" y2="450"/>
    <line x1="1000" y1="0" x2="1000" y2="450"/>
    <line x1="1100" y1="0" x2="1100" y2="450"/>
  </g>

  <!-- ===== SERVER NODES ===== -->

  <!-- Node 0 (Leader) -->
  <g transform="translate(60, 70)" filter="url(#boxShadow)">
    <rect x="0" y="0" width="220" height="180" rx="10" fill="#1e293b" stroke="#334155" stroke-width="1"/>
    <rect x="0" y="0" width="220" height="34" rx="10" fill="#1a2332"/>
    <rect x="0" y="20" width="220" height="14" fill="#1a2332"/>
    <circle cx="16" cy="17" r="5" fill="#10b981" filter="url(#glow)"/>
    <text x="36" y="21" fill="#10b981" font-family="monospace" font-size="11" font-weight="bold">NODE 0 (LEADER)</text>
    <text x="110" y="34" fill="#64748b" font-family="monospace" font-size="8" text-anchor="middle">192.168.68.200</text>
    <!-- PostgreSQL -->
    <g transform="translate(110, 92)">
      <ellipse cx="0" cy="-12" rx="22" ry="6" fill="url(#pgGrad)" stroke="#23648a" stroke-width="0.8"/>
      <rect x="-22" y="-12" width="44" height="24" rx="2" fill="url(#pgGrad)" stroke="#23648a" stroke-width="0.8"/>
      <ellipse cx="0" cy="12" rx="22" ry="6" fill="url(#pgGrad)" stroke="#23648a" stroke-width="0.8"/>
    </g>
    <text x="110" y="120" fill="#48a9dc" font-family="monospace" font-size="9" text-anchor="middle">PostgreSQL 18</text>
    <text x="110" y="135" fill="#9ca3af" font-family="monospace" font-size="9" text-anchor="middle">Port: 5432</text>
    <!-- Patroni -->
    <rect x="25" y="145" width="80" height="18" rx="4" fill="url(#patroniGrad)" fill-opacity="0.15" stroke="#6366f1" stroke-width="0.5"/>
    <text x="65" y="158" fill="#818cf8" font-family="monospace" font-size="9" text-anchor="middle">Patroni</text>
    <!-- ETCD -->
    <rect x="115" y="145" width="80" height="18" rx="4" fill="url(#etcdGrad)" fill-opacity="0.15" stroke="#06b6d4" stroke-width="0.5"/>
    <text x="155" y="158" fill="#22d3ee" font-family="monospace" font-size="9" text-anchor="middle">ETCD</text>
  </g>

  <!-- Node 1 (Replica) -->
  <g transform="translate(370, 70)" filter="url(#boxShadow)">
    <rect x="0" y="0" width="220" height="180" rx="10" fill="#1e293b" stroke="#334155" stroke-width="1"/>
    <rect x="0" y="0" width="220" height="34" rx="10" fill="#1a2332"/>
    <rect x="0" y="20" width="220" height="14" fill="#1a2332"/>
    <circle cx="16" cy="17" r="5" fill="#6366f1" filter="url(#glow)"/>
    <text x="36" y="21" fill="#818cf8" font-family="monospace" font-size="11" font-weight="bold">NODE 1 (REPLICA)</text>
    <text x="110" y="34" fill="#64748b" font-family="monospace" font-size="8" text-anchor="middle">192.168.68.201</text>
    <!-- PostgreSQL -->
    <g transform="translate(110, 92)">
      <ellipse cx="0" cy="-12" rx="22" ry="6" fill="#1e3a5f" stroke="#23648a" stroke-width="0.8"/>
      <rect x="-22" y="-12" width="44" height="24" rx="2" fill="#1e3a5f" stroke="#23648a" stroke-width="0.8"/>
      <ellipse cx="0" cy="12" rx="22" ry="6" fill="#1e3a5f" stroke="#23648a" stroke-width="0.8"/>
    </g>
    <text x="110" y="120" fill="#48a9dc" font-family="monospace" font-size="9" text-anchor="middle">PostgreSQL 18</text>
    <text x="110" y="135" fill="#9ca3af" font-family="monospace" font-size="9" text-anchor="middle">Port: 5432</text>
    <!-- Patroni -->
    <rect x="25" y="145" width="80" height="18" rx="4" fill="url(#patroniGrad)" fill-opacity="0.15" stroke="#6366f1" stroke-width="0.5"/>
    <text x="65" y="158" fill="#818cf8" font-family="monospace" font-size="9" text-anchor="middle">Patroni</text>
    <!-- ETCD -->
    <rect x="115" y="145" width="80" height="18" rx="4" fill="url(#etcdGrad)" fill-opacity="0.15" stroke="#06b6d4" stroke-width="0.5"/>
    <text x="155" y="158" fill="#22d3ee" font-family="monospace" font-size="9" text-anchor="middle">ETCD</text>
  </g>

  <!-- Node 2 (Replica) -->
  <g transform="translate(680, 70)" filter="url(#boxShadow)">
    <rect x="0" y="0" width="220" height="180" rx="10" fill="#1e293b" stroke="#334155" stroke-width="1"/>
    <rect x="0" y="0" width="220" height="34" rx="10" fill="#1a2332"/>
    <rect x="0" y="20" width="220" height="14" fill="#1a2332"/>
    <circle cx="16" cy="17" r="5" fill="#6366f1" filter="url(#glow)"/>
    <text x="36" y="21" fill="#818cf8" font-family="monospace" font-size="11" font-weight="bold">NODE 2 (REPLICA)</text>
    <text x="110" y="34" fill="#64748b" font-family="monospace" font-size="8" text-anchor="middle">192.168.68.202</text>
    <!-- PostgreSQL -->
    <g transform="translate(110, 92)">
      <ellipse cx="0" cy="-12" rx="22" ry="6" fill="#1e3a5f" stroke="#23648a" stroke-width="0.8"/>
      <rect x="-22" y="-12" width="44" height="24" rx="2" fill="#1e3a5f" stroke="#23648a" stroke-width="0.8"/>
      <ellipse cx="0" cy="12" rx="22" ry="6" fill="#1e3a5f" stroke="#23648a" stroke-width="0.8"/>
    </g>
    <text x="110" y="120" fill="#48a9dc" font-family="monospace" font-size="9" text-anchor="middle">PostgreSQL 18</text>
    <text x="110" y="135" fill="#9ca3af" font-family="monospace" font-size="9" text-anchor="middle">Port: 5432</text>
    <!-- Patroni -->
    <rect x="25" y="145" width="80" height="18" rx="4" fill="url(#patroniGrad)" fill-opacity="0.15" stroke="#6366f1" stroke-width="0.5"/>
    <text x="65" y="158" fill="#818cf8" font-family="monospace" font-size="9" text-anchor="middle">Patroni</text>
    <!-- ETCD -->
    <rect x="115" y="145" width="80" height="18" rx="4" fill="url(#etcdGrad)" fill-opacity="0.15" stroke="#06b6d4" stroke-width="0.5"/>
    <text x="155" y="158" fill="#22d3ee" font-family="monospace" font-size="9" text-anchor="middle">ETCD</text>
  </g>

  <!-- ===== REPLICATION ARROWS ===== -->
  <!-- Node 0 (Leader) → Node 1 (Replica) -->
  <g opacity="0.6">
    <path d="M280 130 L370 130" stroke="#10b981" stroke-width="2"/>
    <polygon points="370,130 360,124 360,136" fill="#10b981"/>
  </g>
  <!-- Node 0 (Leader) → Node 2 (Replica) -->
  <g opacity="0.6">
    <path d="M280 100 L680 100" stroke="#10b981" stroke-width="1.5" stroke-dasharray="4 3"/>
    <polygon points="680,100 670,94 670,106" fill="#10b981"/>
  </g>

  <!-- ===== ETCD CLUSTER ARROWS (bidirectional) ===== -->
  <g opacity="0.5">
    <path d="M280 195 L370 195" stroke="#06b6d4" stroke-width="1.5" stroke-dasharray="4 3"/>
    <polygon points="280,195 290,189 290,201" fill="#06b6d4"/>
    <polygon points="370,195 360,189 360,201" fill="#06b6d4"/>
  </g>
  <g opacity="0.5">
    <path d="M590 195 L680 195" stroke="#06b6d4" stroke-width="1.5" stroke-dasharray="4 3"/>
    <polygon points="590,195 600,189 600,201" fill="#06b6d4"/>
    <polygon points="680,195 670,189 670,201" fill="#06b6d4"/>
  </g>

  <!-- ===== HAPROXY LAYER ===== -->
  <g transform="translate(370, 280)" filter="url(#boxShadow)">
    <rect x="0" y="0" width="460" height="60" rx="10" fill="#1e293b" stroke="#334155" stroke-width="1"/>
    <rect x="0" y="0" width="460" height="28" rx="10" fill="#1a2332"/>
    <rect x="0" y="16" width="460" height="12" fill="#1a2332"/>
    <circle cx="16" cy="14" r="4" fill="#f59e0b"/>
    <text x="30" y="18" fill="#f59e0b" font-family="monospace" font-size="11" font-weight="bold">LOAD BALANCER</text>
    <text x="140" y="40" fill="#9ca3af" font-family="monospace" font-size="10" text-anchor="middle">HAProxy (Node 0)</text>
    <text x="300" y="40" fill="#9ca3af" font-family="monospace" font-size="10" text-anchor="middle">Port 5000 (RW) / Port 5001 (RO)</text>
  </g>

  <!-- ===== APP LAYER ===== -->
  <g transform="translate(370, 365)" filter="url(#boxShadow)">
    <rect x="0" y="0" width="460" height="50" rx="10" fill="#1e293b" stroke="#334155" stroke-width="1"/>
    <rect x="0" y="0" width="460" height="26" rx="10" fill="#1a2332"/>
    <rect x="0" y="14" width="460" height="12" fill="#1a2332"/>
    <circle cx="16" cy="13" r="4" fill="#f59e0b"/>
    <text x="30" y="17" fill="#f59e0b" font-family="monospace" font-size="11" font-weight="bold">APPLICATION LAYER</text>
    <text x="230" y="40" fill="#9ca3af" font-family="monospace" font-size="10" text-anchor="middle">Web Apps  •  API Services  •  Microservices</text>
  </g>

  <!-- ===== CONNECTION LINES ===== -->

  <!-- Nodes → HAProxy -->
  <g opacity="0.4">
    <path d="M170 250 L170 280 L370 300" stroke="#f59e0b" stroke-width="1" stroke-dasharray="4 3"/>
    <path d="M480 250 L480 280" stroke="#f59e0b" stroke-width="1" stroke-dasharray="4 3"/>
    <path d="M790 250 L790 280 L830 300" stroke="#f59e0b" stroke-width="1" stroke-dasharray="4 3"/>
  </g>

  <!-- HAProxy → App -->
  <g opacity="0.4">
    <path d="M600 340 L600 365" stroke="#f59e0b" stroke-width="1.5"/>
    <polygon points="600,365 596,356 604,356" fill="#f59e0b"/>
  </g>

  <!-- ===== ETCD CLUSTER TEXT ===== -->
  <g transform="translate(480, 240)">
    <text x="120" y="10" fill="#22d3ee" font-family="monospace" font-size="10" text-anchor="middle">ETCD Cluster (Ports 2379, 2380)</text>
    <text x="120" y="24" fill="#9ca3af" font-family="monospace" font-size="9" text-anchor="middle">192.168.68.200 • 192.168.68.201 • 192.168.68.202</text>
  </g>

  <!-- ===== LEGEND ===== -->
  <g transform="translate(920, 300)">
    <text x="0" y="10" fill="#ffffff" font-family="system-ui, sans-serif" font-size="12" font-weight="bold">Legend</text>
    <circle cx="8" cy="28" r="4" fill="#10b981"/>
    <text x="18" y="32" fill="#9ca3af" font-family="monospace" font-size="9">Leader (Primary)</text>
    <circle cx="8" cy="48" r="4" fill="#6366f1"/>
    <text x="18" y="52" fill="#9ca3af" font-family="monospace" font-size="9">Replica (Standby)</text>
    <line x1="0" y1="68" x2="16" y2="68" stroke="#10b981" stroke-width="1.5"/>
    <text x="18" y="72" fill="#9ca3af" font-family="monospace" font-size="9">Streaming Replication</text>
    <line x1="0" y1="88" x2="16" y2="88" stroke="#06b6d4" stroke-width="1.5" stroke-dasharray="4 3"/>
    <text x="18" y="92" fill="#9ca3af" font-family="monospace" font-size="9">ETCD Communication</text>
  </g>

  <!-- ===== LOGO BADGES ===== -->
  <g transform="translate(920, 70)">
    <rect x="0" y="0" width="250" height="80" rx="8" fill="#1e293b" stroke="#334155" stroke-width="0.5"/>
    <text x="125" y="18" fill="#ffffff" font-family="system-ui, sans-serif" font-size="12" font-weight="bold" text-anchor="middle">Stack Components</text>
    <rect x="10" y="28" width="50" height="18" rx="3" fill="#336791" fill-opacity="0.2" stroke="#336791" stroke-width="0.5"/>
    <text x="35" y="40" fill="#48a9dc" font-family="monospace" font-size="9" text-anchor="middle">PG 18</text>
    <rect x="65" y="28" width="55" height="18" rx="3" fill="url(#patroniGrad)" fill-opacity="0.15" stroke="#6366f1" stroke-width="0.5"/>
    <text x="92" y="40" fill="#818cf8" font-family="monospace" font-size="9" text-anchor="middle">Patroni</text>
    <rect x="125" y="28" width="50" height="18" rx="3" fill="url(#etcdGrad)" fill-opacity="0.15" stroke="#06b6d4" stroke-width="0.5"/>
    <text x="150" y="40" fill="#22d3ee" font-family="monospace" font-size="9" text-anchor="middle">ETCD</text>
    <rect x="180" y="28" width="55" height="18" rx="3" fill="#f59e0b" fill-opacity="0.15" stroke="#f59e0b" stroke-width="0.5"/>
    <text x="207" y="40" fill="#fbbf24" font-family="monospace" font-size="9" text-anchor="middle">HAProxy</text>
    <text x="125" y="68" fill="#9ca3af" font-family="monospace" font-size="9" text-anchor="middle">Automatic Failover • Self-Healing</text>
  </g>

  <!-- ===== Title ===== -->
  <text x="600" y="430" fill="#ffffff" font-family="system-ui, sans-serif" font-size="22" font-weight="bold" text-anchor="middle" letter-spacing="1">PostgreSQL High Availability</text>
  <text x="600" y="447" fill="#6366f1" font-family="monospace" font-size="12" text-anchor="middle">PostgreSQL 18 • Patroni • ETCD • HAProxy • Auto-Failover</text>
</svg>
